<?xml version="1.0" encoding="utf-8"?>
<!-- Generator: Adobe Illustrator 24.3.0, SVG Export Plug-In . SVG Version: 6.00 Build 0)  -->
<svg version="1.1" id="Layer_1" xmlns="http://www.w3.org/2000/svg" xmlns:xlink="http://www.w3.org/1999/xlink" x="0px" y="0px"
	 viewBox="0 0 1028.7 350" style="enable-background:new 0 0 1028.7 350;" xml:space="preserve">
<style type="text/css">
	.st0{fill-rule:evenodd;clip-rule:evenodd;fill:#FCBF10;}
	.st1{fill-rule:evenodd;clip-rule:evenodd;fill:#2E2F5B;}
	.st2{fill-rule:evenodd;clip-rule:evenodd;fill:#FFFFFF;}
	.st3{fill-rule:evenodd;clip-rule:evenodd;}
	.st4{fill-rule:evenodd;clip-rule:evenodd;fill:#E6E5E7;}
	.st5{fill-rule:evenodd;clip-rule:evenodd;fill:#1A1D39;}
	.st6{fill-rule:evenodd;clip-rule:evenodd;fill:#C9952C;}
	.st7{fill:#252851;}
	.st8{fill:none;stroke:#EAEAEA;stroke-width:0.2;}
	.st9{fill-rule:evenodd;clip-rule:evenodd;fill:#2F2F5B;}
	.st10{fill-rule:evenodd;clip-rule:evenodd;fill:#FFC000;}
	.st11{fill:#FCBF10;}
	.st12{fill:#2E2F5B;}
	.st13{fill:#C9952C;}
	.st14{fill:#FFFFFF;}
	.st15{fill:#E2E2E2;}
	.st16{fill:#292B4F;}
	.st17{fill:#FFC431;}
	.st18{fill:#FFFFFF;stroke:#E6E5E7;stroke-miterlimit:10;}
	.st19{fill:#27294F;}
	.st20{fill:#020202;}
	.st21{opacity:0.14;fill:#292B4F;enable-background:new    ;}
	.st22{fill:#212344;}
</style>
<g>
	<g>
		<g>
			<g transform="translate(-1087.000000, -5778.000000)">
				
					<g id="Group-37" transform="translate(1128.000000, 5850.500000) scale(-1, 1) translate(-1128.000000, -5850.500000) translate(1087.000000, 5778.000000)">
					<path id="Fill-1" class="st0" d="M-516.1,238.9c0,0,7.6-17,16.2-21l-5,18l15.7-7.1l-10.3,19.9l10.7-4.7c0,0-21.3,40.9-29,29.5
						C-525.6,262.3-516.1,238.9-516.1,238.9"/>
					<g id="Clip-4">
					</g>
					<path id="Fill-3" class="st0" d="M-553.8,295.5c0,0-4.2,22.6,19.5,10.2s38.7-25.6,38.7-25.6l-16,0.1l15-11.6
						C-496.6,268.5-522.9,265.5-553.8,295.5"/>
					<path id="Fill-8_2_" class="st1" d="M-558.2,0.4c0,0-88-8.3-87.2,73c0.8,93.3,5.2,105.7-6,160.4c-10.6,46.1,1,79.9,1,79.9
						s9.3-7.7,50.7-7.4c35,0.3,60.5-21.9,79.2-44.8c18.5-22.9,25-106.4,23.6-127.9c-1.4-21.6,0.5-48.7,0.5-48.7s-4.1-80-60.6-84.5
						L-558.2,0.4z"/>
					<path id="Fill-15" class="st2" d="M-510.4,44c1.3,6.9-3.2,13.4-10.1,14.6c-6.9,1.2-13.6-3.4-14.9-10.3
						c-1.3-6.9,3.2-13.4,10.1-14.6C-518.4,32.6-511.7,37.2-510.4,44"/>
					<path id="Fill-17" class="st3" d="M-511.6,41.6c0.3,2.8-1.8,5.3-4.6,5.6s-5.4-1.8-5.6-4.7c-0.3-2.8,1.8-5.3,4.6-5.6
						S-511.9,38.7-511.6,41.6"/>
					<path id="Fill-19" class="st2" d="M-575.5,301.3c23.8,3.3,44.2-20.5,57.6-41.5c13.4-21,19.9-101.6,19.6-123
						c-0.1-8.4,1.9-18.3,2.3-26.4c0,0-8.4,4.9-24.5-1.2s-31.4,2.4-37.4,28.2s11.2,44.1,5.4,82.5C-559.6,266-575.5,301.3-575.5,301.3
						"/>
					<path id="Fill-21" class="st2" d="M-575.5,301.6c23.9,0.3,46.2-17.6,59.8-38.6c13.5-21,20-101.6,19.7-123
						c-0.1-8.4-0.4-21.8,0-29.9"/>
					<path id="Fill-23" class="st4" d="M-574.8,301.6c-0.2,0-0.5,0-0.7,0v-1c0.2,0,0.4,0,0.7,0c24.9,0,46.4-19.7,58.3-38.3
						c13.3-20.7,19.8-101,19.5-122.4V137c-0.1-8.3-0.3-19.7,0-26.9h1c-0.3,7.2-0.2,18.5,0,26.9v2.9c0.3,21.4-6.3,102.1-19.7,122.9
						C-527.7,281.7-549.6,301.6-574.8,301.6"/>
					<path id="Fill-25" class="st5" d="M-530.1,28.2c-4.7,0.2-9.1,2.5-12.8,5.6c-1.8,1.7-3.4,3.5-4.9,5.4c-1.7,1.8-3.1,3.8-4.8,5.8
						l-0.2-0.1c0.8-2.6,2-4.9,3.5-7.1c1.6-2.1,3.4-3.9,5.5-5.4c4.1-3,8.9-4.9,13.7-4.4V28.2z"/>
					<path id="Fill-27" class="st1" d="M-530.8,60.7c0,0,11.8-7.6,20.1-6.2C-502.4,56-515.1,67.5-530.8,60.7"/>
					<path id="Fill-29" class="st0" d="M-505.1,47.1l48.8-2.2l-37.2,29.4C-493.4,74.3-521.4,86.6-505.1,47.1"/>
					<path id="Fill-33" class="st6" d="M-509.6,66.3c4.2,0.5,9.3-0.3,13.8-1.7c4.6-1.4,9.1-3.5,13.3-6c4.1-2.6,8.3-5.5,12.6-8
						c4.3-2.3,8.7-5.2,13.7-5.7c-4.9,0.8-9,4-13.1,6.6c-4.1,2.8-7.9,5.9-12.1,8.8c-4.1,2.9-8.6,5.4-13.4,7.2
						c-4.8,1.8-9.7,3.1-15.4,2.8L-509.6,66.3z"/>
					<path id="Fill-35" class="st1" d="M-562.6,138.5c0,0,28.6,48.6,68.7,41.8c0,0-34.7,55.3-95,20.3
						C-649.3,165.6-562.6,138.5-562.6,138.5"/>
					<path class="st1" d="M-655.5,286.2c0,0,0.2,18.7,4.8,27.5c0,0,7.7-6,42.8-7.3C-572.8,305.1-655.5,286.2-655.5,286.2z"/>
					<path class="st1" d="M-517.6,32.4c0,0-16.1,5.2-20.8,10.7S-530.8,24.3-517.6,32.4z"/>
				</g>
				<g id="Clip-9">
				</g>
			</g>
		</g>
	</g>
	<g>
		<path class="st7" d="M163,106.2c0,0,11.2,7.4,46.1-19.3c0,0-2.7,52.8-45.5,70.5S163,106.2,163,106.2z"/>
		<g id="Design-V2">
			<g transform="translate(-265.000000, -5749.000000)">
				<g id="Group-51" transform="translate(265.000000, 5749.000000)">
					<path id="Fill-3_1_" class="st0" d="M47,293.7c0,0-15.3,16.2,10.5,18.5s44.9-0.6,44.9-0.6l-13.1-8.3l18.3-1.6
						C107.7,301.6,87.8,285.4,47,293.7"/>
					<path id="Fill-3_2_" class="st0" d="M83.9,291.6c0,0-15.3,16.2,10.5,18.5s44.9-0.6,44.9-0.6l-13.1-8.3l18.3-1.6
						C144.6,299.5,124.8,283.3,83.9,291.6"/>
					<g id="Group-9" transform="translate(0.000000, 18.569843)">
						<g id="Clip-8">
						</g>
						<path id="Fill-7" class="st1" d="M109.3-14.2c0,0-85.7-10-92.2,63.9c-3,33.9,2.5,56.6,3.5,75.8c1.8,33.7,0.6,53.9-6.3,86.7
							C5.2,255.7,0,263.7,0,263.7s24.3,16.4,64.2,16.7c33.8,0.2,58.5-20.7,76.5-42.2c18-21.6,24.3-109.5,23-129.8
							c-1.4-20.3,0.5-45.9,0.5-45.9S163.9-10,109.3-14.2"/>
					</g>
					<path id="Fill-14" class="st2" d="M85,295.2c23.6,3.2,43.8-19.9,57.1-40.3s19.7-108.3,19.4-129.1c-0.1-8.1,1.9-17.8,2.2-25.6
						c0,0-3.6-2.1-9.1-1.6c-2.8,0.3-9.2,3.5-12.8,3.4c-5.3-0.1-8.1-0.9-13.5-2.9c-15.9-5.9-31.1,2.3-37.1,27.3s-4.5,54.5-10.3,91.8
						C74,263,85,295.2,85,295.2"/>
					<path id="Fill-16" class="st2" d="M84.6,296c23.5,0.3,45.5-17.1,58.8-37.6C156.7,238,163,150,162.7,129.2
						c-0.1-8.1-0.4-21.2,0-29.1"/>
					<path id="Fill-18" class="st4" d="M85.2,296.4c-0.2,0-0.4,0-0.7,0v-0.9c0.2,0,0.4,0,0.7,0c24.6,0,45.9-19.2,57.7-37.3
						c13.1-20.2,19.6-108.1,19.3-129v-2.8c-0.1-8.1-0.3-19.3,0-26.3h0.9c-0.3,7-0.2,18.1,0,26.2v2.8c0.3,20.9-6.2,109.2-19.5,129.5
						C131.8,277,110.2,296.4,85.2,296.4"/>
					<path id="Fill-20" class="st1" d="M128.5,56.6c0,0,11.4-9.2,19.6-7.7C156.4,50.4,144.2,64.1,128.5,56.6"/>
					<path id="Fill-27_1_" class="st2" d="M118.9,50.5c0.4,6.2-4.3,11.5-10.5,11.9s-11.6-4.2-12-10.4s4.3-11.5,10.5-11.9
						C113,39.7,118.4,44.4,118.9,50.5"/>
					<path id="Stroke-29" class="st8" d="M118.9,50.5c0.4,6.2-4.3,11.5-10.5,11.9s-11.6-4.2-12-10.4s4.3-11.5,10.5-11.9
						C113,39.7,118.4,44.4,118.9,50.5z"/>
					<path id="Fill-31" class="st9" d="M119.2,58.7c-1.6,3.9-5.4,6.7-9.9,7c-4,0.3-7.6-1.5-9.9-4.4c0,0,6-7.8,20-3.3L119.2,58.7z"/>
					<path id="Fill-33_1_" class="st2" d="M159.9,43.8c0.3,5.1-3.6,9.6-8.8,9.9c-5.2,0.3-9.7-3.5-10-8.6s3.6-9.6,8.8-9.9
						C155,34.8,159.5,38.7,159.9,43.8"/>
					<path id="Stroke-35" class="st8" d="M159.9,43.8c0.3,5.1-3.6,9.6-8.8,9.9c-5.2,0.3-9.7-3.5-10-8.6s3.6-9.6,8.8-9.9
						C155,34.8,159.5,38.7,159.9,43.8z"/>
					<path id="Fill-37" class="st9" d="M159.3,53.4c-1.7,2.1-4.2,3.6-7.1,3.7c-3.7,0.2-7.1-1.6-9-4.5c0,0,6-5.6,16.4,0.3L159.3,53.4
						z"/>
					<path id="Fill-39" class="st3" d="M116.6,47c0.2,2.5-1.8,4.7-4.3,4.9c-2.6,0.2-4.8-1.7-4.9-4.3c-0.2-2.5,1.8-4.7,4.3-4.9
						S116.4,44.4,116.6,47"/>
					<path id="Fill-41" class="st3" d="M157.5,41.1c0.1,2.2-1.5,4.1-3.7,4.2c-2.2,0.1-4.1-1.5-4.3-3.7c-0.1-2.2,1.5-4.1,3.7-4.2
						C155.5,37.3,157.4,38.9,157.5,41.1"/>
					<path id="Fill-43" class="st10" d="M133.3,56.3L171.8,77c0,0-34.8,3.5-40,3.3c0,0-16.5-6.2-12.3-15
						C121,62.3,126.4,58.8,133.3,56.3"/>
					<path id="Fill-45" class="st6" d="M119.5,68c1.8,0.8,4,1.4,6.1,1.9s4.3,1,6.5,1.5c4.4,0.9,8.7,1.6,13.1,2.3
						c8.8,1.3,17.7,2.4,26.5,3.3c-8.9-0.6-17.8-1.3-26.7-2.2c-4.4-0.5-8.9-1-13.3-1.7c-2.2-0.4-4.4-0.7-6.6-1.2s-4.3-0.9-6.7-1.8
						L119.5,68z"/>
					<path id="Fill-47" class="st5" d="M85,38.1c0.4-2.2,1.5-4.3,3.3-5.9c0.9-0.8,1.8-1.6,3-1.9c1.1-0.4,2.3-0.5,3.5-0.3v0.2
						c-0.5,0.3-1,0.6-1.5,0.8c-0.5,0.3-1,0.4-1.4,0.7c-0.9,0.5-1.9,0.9-2.8,1.5s-1.6,1.4-2.3,2.2c-0.7,0.8-1.2,1.8-1.6,2.8L85,38.1z
						"/>
					<path id="Fill-49" class="st5" d="M146.9,21.5c-1.4-0.1-2.8-0.1-4.2,0c-0.7,0-1.3,0.3-1.9,0.3c-0.6,0-1.2,0-2,0.1l-0.1-0.1
						c0.3-0.8,1.1-1.3,1.8-1.5c0.8-0.2,1.5-0.1,2.3,0c1.5,0.2,2.8,0.6,4.2,1.1L146.9,21.5z"/>
				</g>
			</g>
		</g>
		<path id="Fill-35_1_" class="st1" d="M87.3,139.7c0,0-83.9,26.2-25.5,60.1c58.3,33.9,91.9-19.6,91.9-19.6
			C115,186.7,87.3,139.7,87.3,139.7"/>
	</g>
	<path class="st11" d="M324.6,291.5c0,0-12.6,20.3-13.5,28l11.7-9l-4.1,22.1l15.8-15.3v13.5c0,0,23-27.5,26.2-40.1
		S334.1,281.6,324.6,291.5z"/>
	<path class="st11" d="M433.8,291.5c0,0,12.6,20.3,13.5,28l-11.7-9l4.1,22.1l-15.8-15.3v13.5c0,0-23-27.5-26.2-40.1
		S424.3,281.6,433.8,291.5z"/>
	<path class="st12" d="M445.7,108.7c0,0,12,13.3,19,37.1c7.4,25.1,13.6,44.1,19.3,56.4c0,0-28.9-3.2-45.1-34.2
		C422.7,136.8,445.7,108.7,445.7,108.7z"/>
	<path class="st12" d="M305.5,72.7c0,0,1.7-59.1,59.2-68.8s80.1,23.3,85.1,33.5s7.9,59.1,5.6,69.9s-1.1,111.4-1.1,119.4
		c0,5.4,4.5,36-6.7,55.6c-5.4,9.4-16.6,11-29.4,16c-13.2,5.2-27,0.6-40.2,1.2c-26.3,1.2-48.3-6.9-48.3-6.9s-9.3,0.1-16.8-10.7
		c-7.1-10.1-12.5-30.5-13.1-49.6c-1.1-39.2,3.9-118.8,3.9-123.9C303.8,103.4,304.9,80.7,305.5,72.7z"/>
	<path class="st11" d="M355,87.1c2.8,2.1,22.8,11.9,26,12.2c0,0,1.8,1,4.7,0.1c0,0,13.9-7.1,24.5-14.4l-0.9-0.3
		c-4.4-1.2-12.3-5.3-12.3-5.3c-3.3-2.4-8.4-5-11.4-6.5c-1.7-0.8-3.7-0.8-5.4,0c-3,1.4-7.8,3.9-10.6,6.2
		C364.9,82.8,355,87.1,355,87.1z"/>
	<g>
		<path class="st13" d="M410.2,85c-2.2,1.2-4.5,2.4-6.8,3.5s-4.6,2.2-6.9,3.2c-2.4,1-4.7,1.9-7.1,3c-2.3,1.1-4.6,2.2-6.9,3.3
			l-0.1,0.1h-0.1c-2.3-0.8-4.6-1.7-6.9-2.5c-2.3-0.9-4.6-1.7-6.9-2.7c-2.3-0.9-4.5-1.9-6.8-2.8c-2.3-1-4.5-2-6.7-3V87
			c2.3,0.7,4.7,1.6,7,2.4s4.6,1.7,6.9,2.6s4.6,1.8,6.8,2.8c2.3,0.9,4.5,1.9,6.8,2.9h-0.2c2.4-1,4.7-2,7-3.1s4.6-2.3,6.8-3.5
			c2.3-1.2,4.6-2.2,7-3.2C405.4,86.8,407.8,85.8,410.2,85L410.2,85z"/>
	</g>
	<circle class="st14" cx="407" cy="57.5" r="10.3"/>
	<circle class="st14" cx="357.4" cy="57.5" r="10.3"/>
	<circle cx="359.4" cy="53.8" r="5.4"/>
	<circle cx="409.5" cy="53.8" r="5.4"/>
	<path class="st14" d="M322.5,151.9c0,0-2.5-38.5,21.1-38.5c23.7,0,34.1,12.3,61.8,1.9c27.8-10.4,35.6,13.2,35.6,13.2
		s2.7,83.7-3.1,124.5c-3.9,27-2.5,39-19.8,45.3c-19.7,7.1-40-2.1-57.7,1c0,0-20.1-0.2-27.3-5.9s-11.7-24.3-8.8-52.3
		C327.2,213.1,325,157,322.5,151.9z"/>
	<path class="st12" d="M307.5,108.7c0,0-12,13.3-19,37.1c-7.4,25.1-13.6,44.1-19.3,56.4c0,0,28.9-3.2,45.1-34.2
		C330.5,136.8,307.5,108.7,307.5,108.7z"/>
	<g>
		<path d="M412.6,31.8c1.1-0.1,2.2-0.1,3.3,0.1c1.1,0.2,2.1,0.5,3.1,0.9c1,0.5,2,1,2.8,1.8s1.5,1.7,1.7,2.8
			c-0.8-0.8-1.6-1.4-2.4-1.9c-0.9-0.5-1.8-0.9-2.7-1.4C416.6,33.4,414.6,32.7,412.6,31.8z"/>
	</g>
	<g>
		<path d="M354.1,29.6c-2.1,0.7-4,1.1-5.9,1.9c-0.9,0.4-1.8,0.8-2.6,1.4c-0.8,0.6-1.4,1.3-2,2.2c-0.1-1.1,0.4-2.2,1.2-3.1
			c0.8-0.9,1.8-1.5,2.8-1.9s2.1-0.7,3.2-0.7C352,29.2,353.1,29.3,354.1,29.6z"/>
	</g>
	<g>
		<path class="st15" d="M329.7,292.3c5,1.9,10.1,3.4,15.3,4.6c2.6,0.6,5.2,1,7.8,1.4c2.6,0.3,5.2,0.6,7.9,0.6c1.3,0.1,2.6,0,3.9-0.1
			l4-0.3c2.7-0.1,5.4-0.1,8.1-0.1c2.7,0.1,5.4,0.3,8.1,0.7c2.7,0.4,5.3,0.9,8,1.7h-0.3c2.9,0,5.9-0.2,8.9-0.4c3-0.2,5.9-0.6,8.9-1
			c2.9-0.5,5.9-1,8.7-1.9c2.9-0.8,5.7-1.9,8.2-3.5c-2.4,1.8-5.2,3.1-8,4.1c-2.8,1.1-5.8,1.8-8.7,2.4c-3,0.6-5.9,1.1-8.9,1.4
			s-6,0.6-9,0.6h-0.1h-0.2c-5-1.4-10.3-1.9-15.6-2.2c-2.6-0.1-5.3-0.1-7.9,0c-1.3,0.1-2.6,0.2-4,0.2s-2.7,0.1-4.1,0
			c-5.4-0.2-10.8-1.2-15.9-2.6c-2.6-0.7-5.1-1.6-7.6-2.5C334.6,294.5,332.1,293.5,329.7,292.3z"/>
	</g>
	<g>
		<path class="st16" d="M861.7,134.5c0,0-32.5-11.5-51.4-35.5c0,0-11.5,72.1,54.4,89.3S861.7,134.5,861.7,134.5z"/>
		<path class="st17" d="M904.6,300c0,0-31.2,8-41.5,13.3c0,0,9.3-1.4,13-1.4c0,0-15.3,5.4-21.9,8.7c0,0,24.5,0.7,28.9-0.7l-21.5,6
			c0,0,14,3.3,40.1,2s21.5-19.9,21.5-19.9S911.3,296,904.6,300z"/>
		<path class="st17" d="M950.8,301.7c0,0-22.8,25.9-30.1,34.8c0,0,10-4.4,13.3-5.6c0,0-8.3,13.5-13,19.1c0,0,20.3-12.2,23.8-14.9
			l-10.6,14.8c6.3-1.7,12.3-4.4,17.8-8c5.3-3.4,10-7.6,14.3-12.2c13-13.8,4.2-24.6,4.2-24.6S955.4,295.3,950.8,301.7z"/>
		<path class="st12" d="M859,117.2c0,0-16.2-89.5,54.6-102.9c73.6-13.8,99.4,48.6,95.6,81.4s-10.6,130.8-8.2,162.9
			c2.4,32.1-10.5,56.9-72.2,57.3s-60.5-59.2-60.5-59.2s-2.7-68.9-4.3-95C863.3,146.8,861.6,131.9,859,117.2z"/>
		<path class="st14" d="M928.8,315.9c-61.6,0.4-60.5-59.2-60.5-59.2s-2.7-68.9-4.3-95s-3.6-37.1-3.6-37.1s4.4-12.9,19.3-10.2
			c14.9,2.7,16.2,12.8,36.4,4c20.2-8.7,36.5,2.7,39.1,13.6c0,0,4.3,19.6,2,36.1s-5.7,66.5-5.7,76.5s7.7,57.4-0.4,69.8
			c0,0-14.2,1.3-18.5,1.3h-4.3L928.8,315.9z"/>
		<path class="st18" d="M951.1,314.5c0,0-14.2,1.3-18.5,1.3h-4.3l0.4,0.1c-61.6,0.4-60.5-59.2-60.5-59.2s-2.7-68.9-4.3-95
			s-3.6-37.1-3.6-37.1"/>
		<circle class="st19" cx="926.3" cy="61.6" r="11.9"/>
		<circle class="st14" cx="924.9" cy="60.2" r="11.9"/>
		
			<ellipse transform="matrix(0.1602 -0.9871 0.9871 0.1602 686.1203 924.8042)" class="st19" cx="886.6" cy="59.2" rx="10.3" ry="10.3"/>
		
			<ellipse transform="matrix(0.1602 -0.9871 0.9871 0.1602 686.3224 922.0902)" class="st14" cx="885.1" cy="57.7" rx="10.3" ry="10.3"/>
		<path class="st11" d="M893.1,68.2l-53,14.3l44.6,11.7c0,0,15,2.7,20.6-7.4C910.9,76.8,897.3,68.5,893.1,68.2z"/>
		<circle class="st20" cx="919.3" cy="57.2" r="5"/>
		<ellipse class="st20" cx="881.5" cy="54.4" rx="4.9" ry="5"/>
		<path class="st20" d="M927.9,37.4c1.3-0.3,2.6-0.4,3.9-0.1c1.3,0.1,2.6,0.6,3.7,1.3c0.6,0.3,1.1,0.7,1.7,1.1
			c0.4,0.4,1,0.9,1.3,1.4c0.9,1,1.3,2.3,1.6,3.6c-0.7-1-1.6-1.9-2.4-2.7c-0.9-0.9-1.9-1.4-2.9-2C932.6,38.7,930.4,37.8,927.9,37.4z"
			/>
		<path class="st20" d="M881.6,38.1c-2.1,0.4-4.2,1-6.2,1.7c-1,0.4-1.9,0.9-2.7,1.4c-0.9,0.6-1.7,1.3-2.6,1.9c0.4-1,1.1-2,1.9-2.9
			c0.9-0.9,1.9-1.4,2.9-1.9c1-0.4,2.1-0.7,3.3-0.7C879.3,37.7,880.5,37.8,881.6,38.1z"/>
		<path class="st21" d="M981.1,150.7c0,0,34.1,5,44,49.7c2.7,12.5-0.9,25.2-2,45.1c0,0-16.2-41.4-50.1-49.9"/>
		<path class="st12" d="M982.1,145.1c0,0,35.2,5.3,45.6,51.6c2.9,12.9-0.9,26.1-2.1,46.7c0,0-16.8-42.8-52-51.7"/>
		<path class="st13" d="M907.4,83c-2.6,1.3-5.3,2.3-8.2,2.9c-2.9,0.7-5.7,1-8.6,1c-1.4,0-2.9,0-4.3-0.1c-1.4-0.1-2.9-0.4-4.2-0.6
			l-8.5-1.1c-5.6-0.9-11.2-1.4-16.8-1.9c-2.9-0.1-5.6-0.4-8.5-0.4c-2.9-0.1-5.6-0.1-8.5,0c2.9-0.3,5.6-0.3,8.5-0.3s5.6,0.1,8.5,0.1
			c5.6,0.3,11.3,0.7,16.9,1.3l8.5,1c1.4,0.1,2.9,0.3,4.2,0.4c1.4,0.1,2.7,0.1,4.2,0c5.4-0.3,10.7-1.7,15.6-4.2L907.4,83z"/>
		<path class="st12" d="M878.2,66.5c0,0,10.3-2.4,15-1.4C893.1,65,889.5,71.2,878.2,66.5z"/>
		<path class="st12" d="M917.5,70.6c0,0,10.9-2.3,15.9-1.3C933.4,69.3,929.3,75.8,917.5,70.6z"/>
		<path class="st22" d="M1003.3,155.2c-1.3-1.3-2.7-2.4-4.3-3.4s-3.2-2-4.9-2.9s-3.3-1.7-5.2-2.4s-3.6-1.4-5.3-2
			c1.9,0.6,3.6,1,5.4,1.7c1.9,0.7,3.6,1.3,5.3,2.1c1.7,0.7,3.4,1.7,5.2,2.6c1.7,1,3.3,2.1,4.7,3.4L1003.3,155.2z"/>
		<path class="st22" d="M982.2,198.1c-0.6-0.4-1.1-0.9-1.7-1.3c-0.7-0.4-1.3-0.7-2-1.1c-1.4-0.7-2.9-1.3-4.3-1.7
			c1.6,0.3,3,0.6,4.6,1c0.7,0.3,1.4,0.4,2.1,0.9c0.7,0.3,1.4,0.7,2.1,1.1L982.2,198.1z"/>
	</g>
</g>
</svg>
