<?xml version="1.0" encoding="utf-8"?>
<!-- Generator: Adobe Illustrator 23.0.1, SVG Export Plug-In . SVG Version: 6.00 Build 0)  -->
<svg version="1.1" id="Layer_1" xmlns="http://www.w3.org/2000/svg" xmlns:xlink="http://www.w3.org/1999/xlink" x="0px" y="0px"
	 viewBox="0 0 376.9 311.8" style="enable-background:new 0 0 376.9 311.8;" xml:space="preserve">
<style type="text/css">
	.st0{opacity:0.82;}
	.st1{opacity:0.49;fill:none;stroke:#2E2F5B;stroke-miterlimit:10;enable-background:new    ;}
	.st2{opacity:0.11;fill:#2E2F5B;enable-background:new    ;}
	.st3{fill:#FFFFFF;stroke:#2E2F5B;stroke-miterlimit:10;}
	.st4{fill:none;stroke:#8A8EA8;stroke-miterlimit:10;}
	.st5{fill:#FFFFFF;stroke:#8A8EA8;stroke-miterlimit:10;}
	.st6{fill:#FFFFFF;stroke:#2E2F5B;stroke-width:0.75;stroke-miterlimit:10;}
	.st7{fill:#2E2F5B;}
	.st8{opacity:0.3;fill:none;stroke:#2E2F5B;stroke-width:0.5;stroke-miterlimit:10;enable-background:new    ;}
	.st9{fill:#292B4F;}
	.st10{fill:#FFC431;}
	.st11{fill:#FFFFFF;}
	.st12{fill:#FFFFFF;stroke:#E6E5E7;stroke-miterlimit:10;}
	.st13{fill:#27294F;}
	.st14{fill:#FCBF10;}
	.st15{fill:#020202;}
	.st16{fill:#CD1E4F;}
	.st17{fill:#ED2551;}
	.st18{opacity:0.14;fill:#292B4F;enable-background:new    ;}
	.st19{fill:#C9952C;}
	.st20{fill:#212344;}
</style>
<title>SupportaBootcamp_illustration</title>
<g class="st0">
	<rect x="8.4" y="1.4" class="st1" width="261.3" height="189.6"/>
	<rect x="195.3" y="111.8" class="st2" width="36.6" height="9.3"/>
	<path class="st3" d="M6.4,0.5h264c1.9,0,3.5,1.6,3.5,3.5v3c0,1.9-1.6,3.5-3.5,3.5H6.4C4.5,10.5,2.9,9,2.9,7V4
		C2.9,2.1,4.5,0.5,6.4,0.5z"/>
	<rect x="45.7" y="193.9" class="st4" width="3.9" height="86.3"/>
	<rect x="227" y="193.9" class="st4" width="3.9" height="86.3"/>
	<path class="st3" d="M4,183.8h264c1.9,0,3.5,1.6,3.5,3.5v3c0,1.9-1.6,3.5-3.5,3.5H4c-1.9,0-3.5-1.6-3.5-3.5v-3
		C0.5,185.4,2.1,183.8,4,183.8z"/>
	<path class="st5" d="M10.4,276.5h250.8c0.8,0,1.5,0.7,1.5,1.5v1.5c0,0.8-0.7,1.5-1.5,1.5H10.4c-0.8,0-1.5-0.7-1.5-1.5V278
		C8.9,277.1,9.6,276.5,10.4,276.5z"/>
	<rect x="119.9" y="26.8" class="st2" width="127.2" height="74.8"/>
	<rect x="123.4" y="23.3" class="st6" width="127.2" height="74.8"/>
	<rect x="25.8" y="23.5" class="st6" width="80.4" height="89.6"/>
	<rect x="25.8" y="23.4" class="st6" width="80.4" height="6.4"/>
	<circle class="st7" cx="29.6" cy="26.6" r="0.9"/>
	<circle class="st7" cx="33" cy="26.6" r="0.9"/>
	<circle class="st7" cx="36.3" cy="26.6" r="0.9"/>
	<rect x="33.8" y="37.4" class="st2" width="64.3" height="36.7"/>
	<rect x="33.7" y="78.4" class="st2" width="30.1" height="20.9"/>
	<rect x="68.1" y="78.4" class="st2" width="30.1" height="20.9"/>
	<line class="st8" x1="33.5" y1="103.6" x2="63.7" y2="103.6"/>
	<line class="st8" x1="33.5" y1="106.6" x2="63.7" y2="106.6"/>
	<line class="st8" x1="68.3" y1="103.6" x2="98.4" y2="103.6"/>
	<line class="st8" x1="68.3" y1="106.6" x2="98.4" y2="106.6"/>
	<circle class="st2" cx="187.7" cy="58.9" r="9.6"/>
	<path class="st7" d="M186.1,54.9v7.7l5.4-3.8L186.1,54.9z M186.5,55.6l4.5,3.1l-4.5,3.1V55.6z"/>
	<polygon class="st7" points="191,58.8 186.5,61.9 186.5,55.6 	"/>
	<rect x="25.5" y="135.9" class="st6" width="93.1" height="13.2"/>
	<path class="st9" d="M112.3,140.4c-0.9-0.9-2.3-0.9-3.1,0c-0.4,0.4-0.6,1-0.6,1.6c0,0.6,0.2,1.2,0.6,1.6c0.8,0.9,2.2,0.9,3.1,0.1
		C113.1,142.8,113.2,141.4,112.3,140.4C112.3,140.5,112.3,140.4,112.3,140.4L112.3,140.4z M113.1,143.5l-0.1,0.1l2,2l-0.6,0.6l-2-2
		l-0.1,0.1c-0.5,0.3-1,0.4-1.5,0.5c-0.8,0-1.5-0.3-2-0.8c-1.1-1.1-1.1-2.9,0-4c0,0,0,0,0,0c1.1-1.1,2.9-1.1,4,0
		c0.5,0.5,0.8,1.2,0.8,2C113.5,142.5,113.3,143,113.1,143.5z"/>
	<path class="st2" d="M32.6,160H60c3.9,0,7,3.1,7,7v0c0,3.9-3.1,7-7,7H32.6c-3.9,0-7-3.1-7-7v0C25.6,163.2,28.7,160,32.6,160z"/>
	<path class="st6" d="M83,160h27.4c3.9,0,7,3.1,7,7v0c0,3.9-3.1,7-7,7H83c-3.9,0-7-3.1-7-7v0C76,163.2,79.2,160,83,160z"/>
	<rect x="138.5" y="121.1" class="st6" width="10.6" height="51.4"/>
	<rect x="155.4" y="134.4" class="st6" width="10.6" height="38.1"/>
	<rect x="172.7" y="145.8" class="st6" width="10.6" height="26.7"/>
	<rect x="189.5" y="155.8" class="st6" width="10.6" height="16.7"/>
</g>
<path class="st9" d="M242,161.4c0,0-22.7-8-35.9-24.8c0,0-8,50.3,38,62.3S242,161.4,242,161.4z"/>
<path class="st10" d="M271.9,276.9c0,0-21.8,5.6-29,9.3c0,0,6.5-1,9.1-1c0,0-10.7,3.8-15.3,6.1c0,0,17.1,0.5,20.2-0.5l-15,4.2
	c0,0,9.8,2.3,28,1.4c18.2-0.9,15-13.9,15-13.9S276.6,274.1,271.9,276.9z"/>
<path class="st10" d="M304.2,278.1c0,0-15.9,18.1-21,24.3c0,0,7-3.1,9.3-3.9c0,0-5.8,9.4-9.1,13.3c0,0,14.2-8.5,16.6-10.4l-7.4,10.3
	c4.4-1.2,8.6-3.1,12.4-5.6c3.7-2.4,7-5.3,10-8.5c9.1-9.6,2.9-17.2,2.9-17.2S307.4,273.6,304.2,278.1z"/>
<path class="st7" d="M240.1,149.3c0,0-11.3-62.5,38.1-71.8c51.4-9.6,69.4,33.9,66.7,56.8s-7.4,91.3-5.7,113.7s-7.3,39.7-50.4,40
	s-42.2-41.3-42.2-41.3s-1.9-48.1-3-66.3C243.1,170,241.9,159.6,240.1,149.3z"/>
<path class="st11" d="M288.8,288c-43,0.3-42.2-41.3-42.2-41.3s-1.9-48.1-3-66.3s-2.5-25.9-2.5-25.9s3.1-9,13.5-7.1
	c10.4,1.9,11.3,8.9,25.4,2.8s25.5,1.9,27.3,9.5c0,0,3,13.7,1.4,25.2s-4,46.4-4,53.4s5.4,40.1-0.3,48.7c0,0-9.9,0.9-12.9,0.9h-3
	L288.8,288z"/>
<path class="st12" d="M304.4,287c0,0-9.9,0.9-12.9,0.9h-3l0.3,0.1c-43,0.3-42.2-41.3-42.2-41.3s-1.9-48.1-3-66.3s-2.5-25.9-2.5-25.9
	"/>
<circle class="st13" cx="287.1" cy="110.5" r="8.3"/>
<circle class="st11" cx="286.1" cy="109.5" r="8.3"/>
<circle class="st13" cx="259.3" cy="108.8" r="7.2"/>
<circle class="st11" cx="258.3" cy="107.8" r="7.2"/>
<path class="st14" d="M263.9,115.1l-37,10l31.1,8.2c0,0,10.5,1.9,14.4-5.2C276.3,121.1,266.8,115.3,263.9,115.1z"/>
<circle class="st15" cx="282.2" cy="107.4" r="3.5"/>
<ellipse class="st15" cx="255.8" cy="105.5" rx="3.4" ry="3.5"/>
<path class="st15" d="M288.2,93.6c0.9-0.2,1.8-0.3,2.7-0.1c0.9,0.1,1.8,0.4,2.6,0.9c0.4,0.2,0.8,0.5,1.2,0.8c0.3,0.3,0.7,0.6,0.9,1
	c0.6,0.7,0.9,1.6,1.1,2.5c-0.5-0.7-1.1-1.3-1.7-1.9c-0.6-0.6-1.3-1-2-1.4C291.5,94.5,289.9,93.9,288.2,93.6z"/>
<path class="st15" d="M255.9,94.1c-1.5,0.3-2.9,0.7-4.3,1.2c-0.7,0.3-1.3,0.6-1.9,1c-0.6,0.4-1.2,0.9-1.8,1.3c0.3-0.7,0.8-1.4,1.3-2
	c0.6-0.6,1.3-1,2-1.3c0.7-0.3,1.5-0.5,2.3-0.5C254.3,93.8,255.1,93.9,255.9,94.1z"/>
<path class="st16" d="M316.3,221.4c0,0,34.9-46.2,40-47.9c0,0,18.4,42.3,20.6,50.1l-38.7,50.3L316.3,221.4z"/>
<path class="st17" d="M313.3,221.4c0,0,37.4-46,42.6-47.7c0,0,15.9,42.1,18.1,49.9l-38.7,50.3L313.3,221.4z"/>
<path class="st18" d="M325.3,172.7c0,0,23.8,3.5,30.7,34.7c1.9,8.7-0.6,17.6-1.4,31.5c0,0-11.3-28.9-35-34.8"/>
<path class="st7" d="M326,168.8c0,0,24.6,3.7,31.8,36c2,9-0.6,18.2-1.5,32.6c0,0-11.7-29.9-36.3-36.1"/>
<path class="st19" d="M273.9,125.4c-1.8,0.9-3.7,1.6-5.7,2c-2,0.5-4,0.7-6,0.7c-1,0-2,0-3-0.1c-1-0.1-2-0.3-2.9-0.4l-5.9-0.8
	c-3.9-0.6-7.8-1-11.7-1.3c-2-0.1-3.9-0.3-5.9-0.3c-2-0.1-3.9-0.1-5.9,0c2-0.2,3.9-0.2,5.9-0.2c2,0,3.9,0.1,5.9,0.1
	c3.9,0.2,7.9,0.5,11.8,0.9l5.9,0.7c1,0.1,2,0.2,2.9,0.3c1,0.1,1.9,0.1,2.9,0c3.8-0.2,7.5-1.2,10.9-2.9L273.9,125.4z"/>
<path class="st7" d="M253.5,113.9c0,0,7.2-1.7,10.5-1C263.9,112.9,261.4,117.2,253.5,113.9z"/>
<path class="st7" d="M280.9,116.8c0,0,7.6-1.6,11.1-0.9C292,115.9,289.2,120.4,280.9,116.8z"/>
<path class="st20" d="M340.8,175.8c-0.9-0.9-1.9-1.7-3-2.4c-1.1-0.7-2.2-1.4-3.4-2c-1.2-0.6-2.3-1.2-3.6-1.7s-2.5-1-3.7-1.4
	c1.3,0.4,2.5,0.7,3.8,1.2s2.5,0.9,3.7,1.5c1.2,0.5,2.4,1.2,3.6,1.8c1.2,0.7,2.3,1.5,3.3,2.4L340.8,175.8z"/>
<path class="st20" d="M326.1,205.8c-0.4-0.3-0.8-0.6-1.2-0.9c-0.5-0.3-0.9-0.5-1.4-0.8c-1-0.5-2-0.9-3-1.2c1.1,0.2,2.1,0.4,3.2,0.7
	c0.5,0.2,1,0.3,1.5,0.6c0.5,0.2,1,0.5,1.5,0.8L326.1,205.8z"/>
</svg>
